<mxfile host="app.diagrams.net" modified="2024-03-24T17:30:26.272Z" agent="Mozilla/5.0 (Windows NT 10.0; Win64; x64) AppleWebKit/537.36 (KHTML, like Gecko) Chrome/122.0.0.0 Safari/537.36 Edg/122.0.0.0" etag="Nv4-BXc-IOgwOolvTfqD" version="24.0.4" type="device">
  <diagram name="Page-1" id="c4acf3e9-155e-7222-9cf6-157b1a14988f">
    <mxGraphModel dx="2216" dy="1102" grid="0" gridSize="10" guides="1" tooltips="1" connect="1" arrows="1" fold="1" page="0" pageScale="1" pageWidth="850" pageHeight="1100" background="none" math="0" shadow="0">
      <root>
        <mxCell id="0" />
        <mxCell id="1" parent="0" />
        <mxCell id="modwhuATBN1DqPC1WOe8-40" style="edgeStyle=orthogonalEdgeStyle;rounded=0;orthogonalLoop=1;jettySize=auto;html=1;entryX=0.483;entryY=1.065;entryDx=0;entryDy=0;entryPerimeter=0;" parent="1" source="modwhuATBN1DqPC1WOe8-5" target="modwhuATBN1DqPC1WOe8-35" edge="1">
          <mxGeometry relative="1" as="geometry">
            <mxPoint x="691" y="1022" as="targetPoint" />
            <Array as="points">
              <mxPoint x="40" y="390" />
              <mxPoint x="40" y="980" />
              <mxPoint x="744" y="980" />
              <mxPoint x="744" y="816" />
              <mxPoint x="760" y="816" />
            </Array>
          </mxGeometry>
        </mxCell>
        <mxCell id="modwhuATBN1DqPC1WOe8-5" value="&lt;p style=&quot;margin:0px;margin-top:4px;text-align:center;&quot;&gt;&lt;i&gt;&amp;lt;&amp;lt;Interface&amp;gt;&amp;gt;&lt;/i&gt;&lt;br&gt;&lt;b&gt;ISubscription&lt;/b&gt;&lt;/p&gt;&lt;hr size=&quot;1&quot; style=&quot;border-style:solid;&quot;&gt;&lt;p style=&quot;margin:0px;margin-left:4px;&quot;&gt;+ name: string&lt;/p&gt;&lt;hr size=&quot;1&quot; style=&quot;border-style:solid;&quot;&gt;&lt;p style=&quot;margin:0px;margin-left:4px;&quot;&gt;+ double getMonthlyFee()&lt;br&gt;+ setMonthlyFee(double fee)g&amp;gt;&lt;/p&gt;&lt;p style=&quot;margin:0px;margin-left:4px;&quot;&gt;+&amp;nbsp;int getMinimumPeriod()&lt;/p&gt;&lt;p style=&quot;margin:0px;margin-left:4px;&quot;&gt;+&amp;nbsp;std::vector&amp;lt;std::string&amp;gt; getChannels()&lt;/p&gt;&lt;p style=&quot;margin:0px;margin-left:4px;&quot;&gt;+&amp;nbsp;void addChannel(const std::string&amp;amp; channel)&lt;/p&gt;&lt;p style=&quot;margin:0px;margin-left:4px;&quot;&gt;+&amp;nbsp;std::vector&amp;lt;std::string&amp;gt; getFeatures()&lt;/p&gt;&lt;p style=&quot;margin:0px;margin-left:4px;&quot;&gt;+&amp;nbsp;void addFeature(const std::string&amp;amp; feature)&lt;/p&gt;" style="verticalAlign=top;align=left;overflow=fill;html=1;whiteSpace=wrap;" parent="1" vertex="1">
          <mxGeometry x="90" y="330" width="190" height="240" as="geometry" />
        </mxCell>
        <mxCell id="modwhuATBN1DqPC1WOe8-6" value="&lt;p style=&quot;margin:0px;margin-top:4px;text-align:center;&quot;&gt;&lt;i&gt;&amp;lt;&amp;lt;Interface&amp;gt;&amp;gt;&lt;/i&gt;&lt;br&gt;&lt;b&gt;ISubscriptionFactory&lt;/b&gt;&lt;/p&gt;&lt;hr size=&quot;1&quot; style=&quot;border-style:solid;&quot;&gt;&lt;p style=&quot;margin:0px;margin-left:4px;&quot;&gt;+ purchaseSubscription(string subscriptionType, User user): ISubscription&lt;/p&gt;" style="verticalAlign=top;align=left;overflow=fill;html=1;whiteSpace=wrap;" parent="1" vertex="1">
          <mxGeometry x="90" y="620" width="190" height="100" as="geometry" />
        </mxCell>
        <mxCell id="modwhuATBN1DqPC1WOe8-7" value="" style="endArrow=block;dashed=1;endFill=0;endSize=12;html=1;rounded=0;exitX=0.5;exitY=1;exitDx=0;exitDy=0;entryX=0.5;entryY=0;entryDx=0;entryDy=0;" parent="1" source="modwhuATBN1DqPC1WOe8-5" target="modwhuATBN1DqPC1WOe8-6" edge="1">
          <mxGeometry width="160" relative="1" as="geometry">
            <mxPoint x="250" y="510" as="sourcePoint" />
            <mxPoint x="410" y="510" as="targetPoint" />
          </mxGeometry>
        </mxCell>
        <mxCell id="modwhuATBN1DqPC1WOe8-8" value="DomesticSubscription" style="swimlane;fontStyle=1;align=center;verticalAlign=top;childLayout=stackLayout;horizontal=1;startSize=26;horizontalStack=0;resizeParent=1;resizeParentMax=0;resizeLast=0;collapsible=1;marginBottom=0;whiteSpace=wrap;html=1;" parent="1" vertex="1">
          <mxGeometry x="425" y="300" width="200" height="260" as="geometry" />
        </mxCell>
        <mxCell id="modwhuATBN1DqPC1WOe8-9" value="+ monthlyFee: double&lt;br&gt;+ channels: vector&amp;lt;std::string&amp;gt;&lt;div&gt;+ features: vector&amp;lt;std::string&amp;gt;&lt;br&gt;&lt;/div&gt;" style="text;strokeColor=none;fillColor=none;align=left;verticalAlign=top;spacingLeft=4;spacingRight=4;overflow=hidden;rotatable=0;points=[[0,0.5],[1,0.5]];portConstraint=eastwest;whiteSpace=wrap;html=1;" parent="modwhuATBN1DqPC1WOe8-8" vertex="1">
          <mxGeometry y="26" width="200" height="54" as="geometry" />
        </mxCell>
        <mxCell id="modwhuATBN1DqPC1WOe8-10" value="" style="line;strokeWidth=1;fillColor=none;align=left;verticalAlign=middle;spacingTop=-1;spacingLeft=3;spacingRight=3;rotatable=0;labelPosition=right;points=[];portConstraint=eastwest;strokeColor=inherit;" parent="modwhuATBN1DqPC1WOe8-8" vertex="1">
          <mxGeometry y="80" width="200" height="8" as="geometry" />
        </mxCell>
        <mxCell id="modwhuATBN1DqPC1WOe8-11" value="&lt;p style=&quot;margin: 0px 0px 0px 4px;&quot;&gt;+ double getMonthlyFee()&lt;br&gt;+ setMonthlyFee(double fee)g&amp;gt;&lt;/p&gt;&lt;p style=&quot;margin: 0px 0px 0px 4px;&quot;&gt;+&amp;nbsp;int getMinimumPeriod()&lt;/p&gt;&lt;p style=&quot;margin: 0px 0px 0px 4px;&quot;&gt;+&amp;nbsp;std::vector&amp;lt;std::string&amp;gt; getChannels()&lt;/p&gt;&lt;p style=&quot;margin: 0px 0px 0px 4px;&quot;&gt;+&amp;nbsp;void addChannel(const std::string&amp;amp; channel)&lt;/p&gt;&lt;p style=&quot;margin: 0px 0px 0px 4px;&quot;&gt;+&amp;nbsp;std::vector&amp;lt;std::string&amp;gt; getFeatures()&lt;/p&gt;&lt;p style=&quot;margin: 0px 0px 0px 4px;&quot;&gt;+&amp;nbsp;void addFeature(const std::string&amp;amp; feature)&lt;/p&gt;" style="text;strokeColor=none;fillColor=none;align=left;verticalAlign=top;spacingLeft=4;spacingRight=4;overflow=hidden;rotatable=0;points=[[0,0.5],[1,0.5]];portConstraint=eastwest;whiteSpace=wrap;html=1;" parent="modwhuATBN1DqPC1WOe8-8" vertex="1">
          <mxGeometry y="88" width="200" height="172" as="geometry" />
        </mxCell>
        <mxCell id="modwhuATBN1DqPC1WOe8-22" value="" style="endArrow=block;dashed=1;endFill=0;endSize=12;html=1;rounded=0;entryX=0.012;entryY=0.035;entryDx=0;entryDy=0;entryPerimeter=0;" parent="1" edge="1">
          <mxGeometry width="160" relative="1" as="geometry">
            <mxPoint x="320" y="850" as="sourcePoint" />
            <mxPoint x="427.4000000000001" y="850.52" as="targetPoint" />
          </mxGeometry>
        </mxCell>
        <mxCell id="modwhuATBN1DqPC1WOe8-23" value="" style="endArrow=block;dashed=1;endFill=0;endSize=12;html=1;rounded=0;entryX=0;entryY=0.218;entryDx=0;entryDy=0;entryPerimeter=0;" parent="1" target="modwhuATBN1DqPC1WOe8-31" edge="1">
          <mxGeometry width="160" relative="1" as="geometry">
            <mxPoint x="640" y="460" as="sourcePoint" />
            <mxPoint x="745" y="464.85000000000014" as="targetPoint" />
          </mxGeometry>
        </mxCell>
        <mxCell id="modwhuATBN1DqPC1WOe8-24" value="" style="endArrow=block;dashed=1;endFill=0;endSize=12;html=1;rounded=0;" parent="1" edge="1">
          <mxGeometry width="160" relative="1" as="geometry">
            <mxPoint x="320" y="379.44000000000005" as="sourcePoint" />
            <mxPoint x="425" y="379.8800000000001" as="targetPoint" />
          </mxGeometry>
        </mxCell>
        <mxCell id="modwhuATBN1DqPC1WOe8-25" value="" style="endArrow=none;dashed=1;html=1;dashPattern=1 3;strokeWidth=2;rounded=0;entryX=0.998;entryY=0.209;entryDx=0;entryDy=0;entryPerimeter=0;" parent="1" edge="1" target="modwhuATBN1DqPC1WOe8-5">
          <mxGeometry width="50" height="50" relative="1" as="geometry">
            <mxPoint x="320" y="850" as="sourcePoint" />
            <mxPoint x="270" y="380" as="targetPoint" />
            <Array as="points">
              <mxPoint x="320" y="600" />
              <mxPoint x="320" y="380" />
            </Array>
          </mxGeometry>
        </mxCell>
        <mxCell id="modwhuATBN1DqPC1WOe8-41" style="edgeStyle=orthogonalEdgeStyle;rounded=0;orthogonalLoop=1;jettySize=auto;html=1;entryX=1;entryY=0.5;entryDx=0;entryDy=0;" parent="1" source="modwhuATBN1DqPC1WOe8-26" target="modwhuATBN1DqPC1WOe8-35" edge="1">
          <mxGeometry relative="1" as="geometry">
            <mxPoint x="1020" y="1000" as="targetPoint" />
            <Array as="points">
              <mxPoint x="990" y="345" />
              <mxPoint x="990" y="988" />
            </Array>
          </mxGeometry>
        </mxCell>
        <mxCell id="modwhuATBN1DqPC1WOe8-26" value="WebSite" style="swimlane;fontStyle=1;align=center;verticalAlign=top;childLayout=stackLayout;horizontal=1;startSize=26;horizontalStack=0;resizeParent=1;resizeParentMax=0;resizeLast=0;collapsible=1;marginBottom=0;whiteSpace=wrap;html=1;" parent="1" vertex="1">
          <mxGeometry x="730" y="300" width="210" height="90" as="geometry" />
        </mxCell>
        <mxCell id="modwhuATBN1DqPC1WOe8-29" value="+ purchaseSubscription(string subscriptionType, User user): ISubscription" style="text;strokeColor=none;fillColor=none;align=left;verticalAlign=top;spacingLeft=4;spacingRight=4;overflow=hidden;rotatable=0;points=[[0,0.5],[1,0.5]];portConstraint=eastwest;whiteSpace=wrap;html=1;" parent="modwhuATBN1DqPC1WOe8-26" vertex="1">
          <mxGeometry y="26" width="210" height="64" as="geometry" />
        </mxCell>
        <mxCell id="modwhuATBN1DqPC1WOe8-30" value="MobileApp" style="swimlane;fontStyle=1;align=center;verticalAlign=top;childLayout=stackLayout;horizontal=1;startSize=26;horizontalStack=0;resizeParent=1;resizeParentMax=0;resizeLast=0;collapsible=1;marginBottom=0;whiteSpace=wrap;html=1;" parent="1" vertex="1">
          <mxGeometry x="730" y="420" width="210" height="90" as="geometry" />
        </mxCell>
        <mxCell id="modwhuATBN1DqPC1WOe8-31" value="+ purchaseSubscription(string subscriptionType, User user): ISubscription" style="text;strokeColor=none;fillColor=none;align=left;verticalAlign=top;spacingLeft=4;spacingRight=4;overflow=hidden;rotatable=0;points=[[0,0.5],[1,0.5]];portConstraint=eastwest;whiteSpace=wrap;html=1;" parent="modwhuATBN1DqPC1WOe8-30" vertex="1">
          <mxGeometry y="26" width="210" height="64" as="geometry" />
        </mxCell>
        <mxCell id="modwhuATBN1DqPC1WOe8-32" value="ManagerCall" style="swimlane;fontStyle=1;align=center;verticalAlign=top;childLayout=stackLayout;horizontal=1;startSize=26;horizontalStack=0;resizeParent=1;resizeParentMax=0;resizeLast=0;collapsible=1;marginBottom=0;whiteSpace=wrap;html=1;" parent="1" vertex="1">
          <mxGeometry x="730" y="530" width="210" height="90" as="geometry" />
        </mxCell>
        <mxCell id="modwhuATBN1DqPC1WOe8-33" value="+ purchaseSubscription(string subscriptionType, User user): ISubscription" style="text;strokeColor=none;fillColor=none;align=left;verticalAlign=top;spacingLeft=4;spacingRight=4;overflow=hidden;rotatable=0;points=[[0,0.5],[1,0.5]];portConstraint=eastwest;whiteSpace=wrap;html=1;" parent="modwhuATBN1DqPC1WOe8-32" vertex="1">
          <mxGeometry y="26" width="210" height="64" as="geometry" />
        </mxCell>
        <mxCell id="modwhuATBN1DqPC1WOe8-34" value="SubscriptionUtils&lt;div&gt;&lt;br&gt;&lt;/div&gt;" style="swimlane;fontStyle=1;align=center;verticalAlign=top;childLayout=stackLayout;horizontal=1;startSize=26;horizontalStack=0;resizeParent=1;resizeParentMax=0;resizeLast=0;collapsible=1;marginBottom=0;whiteSpace=wrap;html=1;" parent="1" vertex="1">
          <mxGeometry x="659" y="699" width="210" height="90" as="geometry" />
        </mxCell>
        <mxCell id="modwhuATBN1DqPC1WOe8-35" value="+ createSubscription(string subscriptionType): ISubscription" style="text;strokeColor=none;fillColor=none;align=left;verticalAlign=top;spacingLeft=4;spacingRight=4;overflow=hidden;rotatable=0;points=[[0,0.5],[1,0.5]];portConstraint=eastwest;whiteSpace=wrap;html=1;" parent="modwhuATBN1DqPC1WOe8-34" vertex="1">
          <mxGeometry y="26" width="210" height="64" as="geometry" />
        </mxCell>
        <mxCell id="modwhuATBN1DqPC1WOe8-42" style="edgeStyle=orthogonalEdgeStyle;rounded=0;orthogonalLoop=1;jettySize=auto;html=1;entryX=1.024;entryY=0.082;entryDx=0;entryDy=0;entryPerimeter=0;exitX=1;exitY=0.5;exitDx=0;exitDy=0;" parent="1" source="modwhuATBN1DqPC1WOe8-31" target="modwhuATBN1DqPC1WOe8-35" edge="1">
          <mxGeometry relative="1" as="geometry" />
        </mxCell>
        <mxCell id="modwhuATBN1DqPC1WOe8-43" style="edgeStyle=orthogonalEdgeStyle;rounded=0;orthogonalLoop=1;jettySize=auto;html=1;entryX=1;entryY=0;entryDx=0;entryDy=0;exitX=1;exitY=0.5;exitDx=0;exitDy=0;" parent="1" source="modwhuATBN1DqPC1WOe8-33" target="modwhuATBN1DqPC1WOe8-34" edge="1">
          <mxGeometry relative="1" as="geometry" />
        </mxCell>
        <mxCell id="modwhuATBN1DqPC1WOe8-44" value="" style="endArrow=block;dashed=1;endFill=0;endSize=12;html=1;rounded=0;exitX=0;exitY=0.5;exitDx=0;exitDy=0;entryX=-0.019;entryY=0.288;entryDx=0;entryDy=0;entryPerimeter=0;" parent="1" edge="1">
          <mxGeometry width="160" relative="1" as="geometry">
            <mxPoint x="90" y="706" as="sourcePoint" />
            <mxPoint x="726.01" y="400.4319999999999" as="targetPoint" />
            <Array as="points">
              <mxPoint x="90" y="936" />
              <mxPoint x="640" y="936" />
              <mxPoint x="640" y="400" />
            </Array>
          </mxGeometry>
        </mxCell>
        <mxCell id="modwhuATBN1DqPC1WOe8-46" value="" style="endArrow=block;dashed=1;endFill=0;endSize=12;html=1;rounded=0;entryX=0;entryY=0.218;entryDx=0;entryDy=0;entryPerimeter=0;" parent="1" edge="1">
          <mxGeometry width="160" relative="1" as="geometry">
            <mxPoint x="640" y="569.66" as="sourcePoint" />
            <mxPoint x="730" y="569.66" as="targetPoint" />
          </mxGeometry>
        </mxCell>
        <mxCell id="AtgraDiWjz3YbsjqoyeR-1" value="DomesticSubscription" style="swimlane;fontStyle=1;align=center;verticalAlign=top;childLayout=stackLayout;horizontal=1;startSize=26;horizontalStack=0;resizeParent=1;resizeParentMax=0;resizeLast=0;collapsible=1;marginBottom=0;whiteSpace=wrap;html=1;" vertex="1" parent="1">
          <mxGeometry x="425" y="640" width="200" height="260" as="geometry" />
        </mxCell>
        <mxCell id="AtgraDiWjz3YbsjqoyeR-2" value="+ monthlyFee: double&lt;br&gt;+ channels: vector&amp;lt;std::string&amp;gt;&lt;div&gt;+ features: vector&amp;lt;std::string&amp;gt;&lt;br&gt;&lt;/div&gt;" style="text;strokeColor=none;fillColor=none;align=left;verticalAlign=top;spacingLeft=4;spacingRight=4;overflow=hidden;rotatable=0;points=[[0,0.5],[1,0.5]];portConstraint=eastwest;whiteSpace=wrap;html=1;" vertex="1" parent="AtgraDiWjz3YbsjqoyeR-1">
          <mxGeometry y="26" width="200" height="54" as="geometry" />
        </mxCell>
        <mxCell id="AtgraDiWjz3YbsjqoyeR-3" value="" style="line;strokeWidth=1;fillColor=none;align=left;verticalAlign=middle;spacingTop=-1;spacingLeft=3;spacingRight=3;rotatable=0;labelPosition=right;points=[];portConstraint=eastwest;strokeColor=inherit;" vertex="1" parent="AtgraDiWjz3YbsjqoyeR-1">
          <mxGeometry y="80" width="200" height="8" as="geometry" />
        </mxCell>
        <mxCell id="AtgraDiWjz3YbsjqoyeR-4" value="&lt;p style=&quot;margin: 0px 0px 0px 4px;&quot;&gt;+ double getMonthlyFee()&lt;br&gt;+ setMonthlyFee(double fee)g&amp;gt;&lt;/p&gt;&lt;p style=&quot;margin: 0px 0px 0px 4px;&quot;&gt;+&amp;nbsp;int getMinimumPeriod()&lt;/p&gt;&lt;p style=&quot;margin: 0px 0px 0px 4px;&quot;&gt;+&amp;nbsp;std::vector&amp;lt;std::string&amp;gt; getChannels()&lt;/p&gt;&lt;p style=&quot;margin: 0px 0px 0px 4px;&quot;&gt;+&amp;nbsp;void addChannel(const std::string&amp;amp; channel)&lt;/p&gt;&lt;p style=&quot;margin: 0px 0px 0px 4px;&quot;&gt;+&amp;nbsp;std::vector&amp;lt;std::string&amp;gt; getFeatures()&lt;/p&gt;&lt;p style=&quot;margin: 0px 0px 0px 4px;&quot;&gt;+&amp;nbsp;void addFeature(const std::string&amp;amp; feature)&lt;/p&gt;" style="text;strokeColor=none;fillColor=none;align=left;verticalAlign=top;spacingLeft=4;spacingRight=4;overflow=hidden;rotatable=0;points=[[0,0.5],[1,0.5]];portConstraint=eastwest;whiteSpace=wrap;html=1;" vertex="1" parent="AtgraDiWjz3YbsjqoyeR-1">
          <mxGeometry y="88" width="200" height="172" as="geometry" />
        </mxCell>
        <mxCell id="AtgraDiWjz3YbsjqoyeR-5" value="DomesticSubscription" style="swimlane;fontStyle=1;align=center;verticalAlign=top;childLayout=stackLayout;horizontal=1;startSize=26;horizontalStack=0;resizeParent=1;resizeParentMax=0;resizeLast=0;collapsible=1;marginBottom=0;whiteSpace=wrap;html=1;" vertex="1" parent="1">
          <mxGeometry x="425" y="20" width="200" height="260" as="geometry" />
        </mxCell>
        <mxCell id="AtgraDiWjz3YbsjqoyeR-6" value="+ monthlyFee: double&lt;br&gt;+ channels: vector&amp;lt;std::string&amp;gt;&lt;div&gt;+ features: vector&amp;lt;std::string&amp;gt;&lt;br&gt;&lt;/div&gt;" style="text;strokeColor=none;fillColor=none;align=left;verticalAlign=top;spacingLeft=4;spacingRight=4;overflow=hidden;rotatable=0;points=[[0,0.5],[1,0.5]];portConstraint=eastwest;whiteSpace=wrap;html=1;" vertex="1" parent="AtgraDiWjz3YbsjqoyeR-5">
          <mxGeometry y="26" width="200" height="54" as="geometry" />
        </mxCell>
        <mxCell id="AtgraDiWjz3YbsjqoyeR-7" value="" style="line;strokeWidth=1;fillColor=none;align=left;verticalAlign=middle;spacingTop=-1;spacingLeft=3;spacingRight=3;rotatable=0;labelPosition=right;points=[];portConstraint=eastwest;strokeColor=inherit;" vertex="1" parent="AtgraDiWjz3YbsjqoyeR-5">
          <mxGeometry y="80" width="200" height="8" as="geometry" />
        </mxCell>
        <mxCell id="AtgraDiWjz3YbsjqoyeR-8" value="&lt;p style=&quot;margin: 0px 0px 0px 4px;&quot;&gt;+ double getMonthlyFee()&lt;br&gt;+ setMonthlyFee(double fee)g&amp;gt;&lt;/p&gt;&lt;p style=&quot;margin: 0px 0px 0px 4px;&quot;&gt;+&amp;nbsp;int getMinimumPeriod()&lt;/p&gt;&lt;p style=&quot;margin: 0px 0px 0px 4px;&quot;&gt;+&amp;nbsp;std::vector&amp;lt;std::string&amp;gt; getChannels()&lt;/p&gt;&lt;p style=&quot;margin: 0px 0px 0px 4px;&quot;&gt;+&amp;nbsp;void addChannel(const std::string&amp;amp; channel)&lt;/p&gt;&lt;p style=&quot;margin: 0px 0px 0px 4px;&quot;&gt;+&amp;nbsp;std::vector&amp;lt;std::string&amp;gt; getFeatures()&lt;/p&gt;&lt;p style=&quot;margin: 0px 0px 0px 4px;&quot;&gt;+&amp;nbsp;void addFeature(const std::string&amp;amp; feature)&lt;/p&gt;" style="text;strokeColor=none;fillColor=none;align=left;verticalAlign=top;spacingLeft=4;spacingRight=4;overflow=hidden;rotatable=0;points=[[0,0.5],[1,0.5]];portConstraint=eastwest;whiteSpace=wrap;html=1;" vertex="1" parent="AtgraDiWjz3YbsjqoyeR-5">
          <mxGeometry y="88" width="200" height="172" as="geometry" />
        </mxCell>
        <mxCell id="AtgraDiWjz3YbsjqoyeR-9" value="" style="endArrow=none;dashed=1;html=1;dashPattern=1 3;strokeWidth=2;rounded=0;" edge="1" parent="1">
          <mxGeometry width="50" height="50" relative="1" as="geometry">
            <mxPoint x="320" y="380" as="sourcePoint" />
            <mxPoint x="320" y="120" as="targetPoint" />
          </mxGeometry>
        </mxCell>
        <mxCell id="AtgraDiWjz3YbsjqoyeR-10" value="" style="endArrow=block;dashed=1;endFill=0;endSize=12;html=1;rounded=0;entryX=-0.013;entryY=0.068;entryDx=0;entryDy=0;entryPerimeter=0;" edge="1" parent="1" target="AtgraDiWjz3YbsjqoyeR-8">
          <mxGeometry width="160" relative="1" as="geometry">
            <mxPoint x="320" y="120" as="sourcePoint" />
            <mxPoint x="420" y="210" as="targetPoint" />
          </mxGeometry>
        </mxCell>
      </root>
    </mxGraphModel>
  </diagram>
</mxfile>
